<svg xmlns="http://www.w3.org/2000/svg" width="900" height="600" viewBox="0 0 900 600" role="img" aria-label="LinguaFix: Настройки · языки (плейсхолдер)">
  <rect width="900" height="600" rx="18" fill="#1e1e1e"/>
  <rect x="0.5" y="0.5" width="899" height="599" rx="18" fill="none" stroke="#3d3d3d"/>
  <rect x="1" y="1" width="898" height="62" rx="17" fill="#2d2d2d"/>
  <rect x="1" y="46" width="898" height="17" fill="#2d2d2d"/>
  <text x="28" y="40" font-family="Inter, sans-serif" font-size="22" font-weight="700" fill="#fafafa">LinguaFix</text>
  <text x="150" y="40" font-family="Inter, sans-serif" font-size="16" fill="#9a9a9a">Настройки · языки</text>
  <circle cx="862" cy="32" r="7" fill="#4a4a4a"/>
  <circle cx="838" cy="32" r="7" fill="#4a4a4a"/>
  <rect x="90" y="120" width="720" height="64" rx="14" fill="#2d2d2d"/>
  <text x="120" y="160" font-family="Inter, sans-serif" font-size="18" fill="#fafafa">English (en)</text>
  <rect x="446" y="134" width="72" height="36" rx="18" fill="#3584e4"/>
  <circle cx="518" cy="152" r="14" fill="#ffffff"/>
  <rect x="90" y="198" width="720" height="64" rx="14" fill="#2d2d2d"/>
  <text x="120" y="238" font-family="Inter, sans-serif" font-size="18" fill="#fafafa">Русский (ru)</text>
  <rect x="446" y="212" width="72" height="36" rx="18" fill="#3584e4"/>
  <circle cx="518" cy="230" r="14" fill="#ffffff"/>
  <rect x="90" y="276" width="720" height="64" rx="14" fill="#2d2d2d"/>
  <text x="120" y="316" font-family="Inter, sans-serif" font-size="18" fill="#fafafa">Українська (uk)</text>
  <rect x="446" y="290" width="72" height="36" rx="18" fill="#4a4a4a"/>
  <circle cx="466" cy="308" r="14" fill="#ffffff"/>
  <rect x="90" y="354" width="720" height="64" rx="14" fill="#2d2d2d"/>
  <text x="120" y="394" font-family="Inter, sans-serif" font-size="18" fill="#fafafa">Deutsch (de)</text>
  <rect x="446" y="368" width="72" height="36" rx="18" fill="#4a4a4a"/>
  <circle cx="466" cy="386" r="14" fill="#ffffff"/>
  <rect x="90" y="432" width="720" height="64" rx="14" fill="#2d2d2d"/>
  <text x="120" y="472" font-family="Inter, sans-serif" font-size="18" fill="#fafafa">Français (fr)</text>
  <rect x="446" y="446" width="72" height="36" rx="18" fill="#4a4a4a"/>
  <circle cx="466" cy="464" r="14" fill="#ffffff"/>
</svg>
